<?xml version="1.0" standalone="no"?>
<!DOCTYPE svg PUBLIC "-//W3C//DTD SVG 20010904//EN"
 "http://www.w3.org/TR/2001/REC-SVG-20010904/DTD/svg10.dtd">
<svg version="1.0" xmlns="http://www.w3.org/2000/svg"
 width="220.000000pt" height="360.000000pt" viewBox="0 0 220.000000 360.000000"
 preserveAspectRatio="xMidYMid meet">
<metadata>
Created by potrace 1.15, written by Peter Selinger 2001-2017
</metadata>
<g transform="translate(0.000000,360.000000) scale(0.100000,-0.100000)"
fill="#ffffff" stroke="none">
<path d="M155 3459 c-82 -78 -151 -144 -153 -148 -1 -4 351 -343 783 -755 432
-412 785 -752 783 -756 -2 -5 -354 -343 -783 -751 -429 -408 -781 -748 -783
-754 -4 -16 295 -298 311 -292 24 9 1888 1791 1885 1802 -4 15 -1866 1789
-1881 1793 -7 1 -79 -61 -162 -139z"/>
</g>
</svg>
