<?xml version="1.0" standalone="no"?>
<!DOCTYPE svg PUBLIC "-//W3C//DTD SVG 20010904//EN"
 "http://www.w3.org/TR/2001/REC-SVG-20010904/DTD/svg10.dtd">
<svg version="1.0" xmlns="http://www.w3.org/2000/svg"
 width="12.000000px" height="9.000000px" viewBox="0 0 101.000000 79.000000"
 preserveAspectRatio="xMidYMid meet">
<metadata>
Created by potrace 1.15, written by Peter Selinger 2001-2017
</metadata>
<g transform="translate(0.000000,79.000000) scale(0.100000,-0.100000)"
fill="#ffffff" stroke="none">
<path d="M29 754 l-24 -26 0 -340 0 -340 28 -24 28 -24 445 0 445 0 24 25 25
24 0 341 0 341 -25 24 -24 25 -449 0 -449 0 -24 -26z m901 -77 c0 -60 -47
-114 -217 -249 -89 -70 -173 -132 -188 -138 -35 -13 -54 -2 -216 125 -201 159
-229 190 -229 260 l0 35 425 0 425 0 0 -33z m0 -387 l0 -220 -425 0 -425 0 0
215 c0 118 2 215 5 215 3 0 78 -59 168 -130 89 -72 181 -138 205 -147 68 -26
98 -10 294 147 95 76 174 139 176 139 1 1 2 -98 2 -219z"/>
</g>
</svg>
