<?xml version="1.0" standalone="no"?>
<!DOCTYPE svg PUBLIC "-//W3C//DTD SVG 20010904//EN"
 "http://www.w3.org/TR/2001/REC-SVG-20010904/DTD/svg10.dtd">
<svg version="1.0" xmlns="http://www.w3.org/2000/svg"
 width="261.000000pt" height="220.000000pt" viewBox="0 0 261.000000 220.000000"
 preserveAspectRatio="xMidYMid meet">
<metadata>
Created by potrace 1.15, written by Peter Selinger 2001-2017
</metadata>
<g transform="translate(0.000000,220.000000) scale(0.100000,-0.100000)"
fill="#FFFFFF" stroke="none">
<path d="M58 2184 c-34 -18 -48 -43 -48 -84 0 -84 39 -100 252 -100 l163 0
138 -643 138 -642 -46 -88 c-63 -123 -60 -183 10 -213 19 -8 49 -14 67 -14
l33 -1 -35 -15 c-82 -36 -124 -106 -118 -199 7 -109 83 -180 193 -180 110 0
186 71 193 180 6 93 -36 163 -118 199 -32 14 27 15 625 15 598 0 657 -1 625
-15 -82 -36 -124 -106 -118 -199 7 -109 83 -180 193 -180 110 0 186 71 193
180 6 93 -36 163 -118 199 l-35 15 33 1 c44 0 98 24 111 48 14 26 14 77 1 103
-27 50 -17 49 -795 49 -399 0 -725 3 -725 8 1 4 7 18 15 32 16 29 19 91 6 137
-9 31 -8 32 27 37 21 3 388 47 817 96 428 50 790 93 802 96 13 4 32 18 43 31
19 25 20 42 20 460 0 279 -4 441 -10 454 -28 50 2 49 -1014 49 l-946 0 -6 28
c-39 177 -29 172 -313 172 -180 -1 -232 -4 -253 -16z"/>
</g>
</svg>
