<?xml version="1.0" standalone="no"?>
<!DOCTYPE svg PUBLIC "-//W3C//DTD SVG 20010904//EN"
 "http://www.w3.org/TR/2001/REC-SVG-20010904/DTD/svg10.dtd">
<svg version="1.0" xmlns="http://www.w3.org/2000/svg"
 width="301.000000pt" height="301.000000pt" viewBox="0 0 301.000000 301.000000"
 preserveAspectRatio="xMidYMid meet">
<metadata>
Created by potrace 1.15, written by Peter Selinger 2001-2017
</metadata>
<g transform="translate(0.000000,301.000000) scale(0.100000,-0.100000)"
fill="#007cba" stroke="none">
<path d="M1385 2999 c-477 -33 -904 -297 -1167 -722 -236 -379 -278 -896 -109
-1328 168 -427 575 -787 1017 -897 270 -68 595 -58 844 25 235 78 421 195 603
379 257 259 399 569 426 929 8 105 1 294 -15 384 -50 294 -197 573 -420 795
-319 319 -722 468 -1179 435z m440 -232 c245 -63 435 -175 620 -368 169 -176
267 -352 326 -589 21 -85 24 -117 24 -305 -1 -233 -15 -321 -76 -475 -133
-331 -425 -621 -751 -743 -156 -59 -237 -72 -463 -72 -188 0 -220 3 -305 24
-237 59 -414 157 -589 326 -196 189 -316 394 -372 635 -30 131 -38 396 -15
527 47 270 169 506 361 698 148 148 319 253 513 316 158 50 226 59 437 55 163
-3 204 -7 290 -29z"/>
<path d="M2095 2023 c-12 -2 -198 -181 -415 -398 -217 -217 -399 -395 -404
-395 -5 0 -84 74 -176 165 -160 157 -170 165 -208 165 -57 0 -92 -37 -92 -98
l0 -46 213 -212 c220 -220 240 -234 296 -213 30 11 202 181 612 601 280 287
289 297 289 336 0 29 -7 46 -26 66 -15 14 -30 26 -35 26 -4 0 -13 2 -21 4 -7
2 -22 1 -33 -1z"/>
</g>
</svg>
