<?xml version="1.0" standalone="no"?>
<!DOCTYPE svg PUBLIC "-//W3C//DTD SVG 20010904//EN"
 "http://www.w3.org/TR/2001/REC-SVG-20010904/DTD/svg10.dtd">
<svg version="1.0" xmlns="http://www.w3.org/2000/svg"
 width="70.000000pt" height="57.000000pt" viewBox="0 0 300.000000 244.000000"
 preserveAspectRatio="xMidYMid meet">
<metadata>
Created by potrace 1.15, written by Peter Selinger 2001-2017
</metadata>
<g transform="translate(0.000000,244.000000) scale(0.100000,-0.100000)"
fill="#ffffff" stroke="none">
<path d="M830 2049 c-366 -215 -703 -411 -749 -438 l-83 -48 316 -184 315
-184 1 -466 c0 -361 3 -469 12 -477 35 -28 285 -144 370 -171 312 -99 674 -99
984 0 87 27 337 143 372 171 9 8 12 116 12 477 l0 466 123 72 c172 102 157
103 157 -11 l0 -96 -38 -19 c-59 -30 -111 -89 -127 -145 -10 -34 -15 -97 -15
-203 l0 -153 235 0 235 0 0 170 c0 153 -2 175 -21 215 -23 49 -89 112 -126
122 -23 5 -24 6 -21 145 l3 141 107 61 c59 33 106 65 105 70 -3 9 -1486 877
-1496 875 -3 -1 -305 -176 -671 -390z m1318 -122 l624 -366 -47 -23 -46 -24
-502 53 c-417 44 -504 56 -512 70 -27 43 -69 83 -102 94 -99 32 -213 -34 -230
-134 -9 -55 5 -104 40 -144 76 -86 195 -85 266 4 l31 39 402 -43 c222 -23 408
-44 415 -45 7 -2 -171 -110 -395 -241 -224 -130 -447 -261 -497 -290 l-90 -53
-634 369 c-593 347 -632 371 -610 383 13 7 296 173 629 368 333 196 612 354
620 352 8 -2 296 -168 638 -369z m-1280 -1080 l2 -207 60 0 60 0 0 170 c0 94
2 170 4 170 2 0 113 -63 246 -141 134 -77 248 -143 256 -146 10 -3 343 184
705 397 l49 29 0 -398 0 -398 -107 -51 c-421 -198 -865 -196 -1285 5 l-98 46
0 399 0 399 53 -34 52 -33 3 -207z m1908 177 c42 -28 54 -64 54 -169 l0 -95
-115 0 -115 0 0 91 c0 103 16 151 59 174 35 19 86 19 117 -1z"/>
<path d="M547 1613 c-2 -4 -16 -29 -31 -54 l-26 -46 290 -173 c160 -95 292
-171 294 -169 2 2 16 24 31 48 22 36 25 46 13 56 -7 7 -128 81 -268 165 -140
84 -265 159 -277 167 -11 8 -23 10 -26 6z"/>
<path d="M870 465 l0 -65 60 0 60 0 0 65 0 65 -60 0 -60 0 0 -65z"/>
</g>
</svg>
