<?xml version="1.0" standalone="no"?>
<!DOCTYPE svg PUBLIC "-//W3C//DTD SVG 20010904//EN"
 "http://www.w3.org/TR/2001/REC-SVG-20010904/DTD/svg10.dtd">
<svg version="1.0" xmlns="http://www.w3.org/2000/svg"
 width="72.000000pt" height="56.000000pt" viewBox="0 0 355.000000 276.000000"
 preserveAspectRatio="xMidYMid meet">
<metadata>
Created by potrace 1.15, written by Peter Selinger 2001-2017
</metadata>
<g transform="translate(0.000000,276.000000) scale(0.100000,-0.100000)"
fill="#eb2f5b" stroke="none">
<path d="M2095 2731 c-150 -44 -258 -123 -329 -239 -72 -120 -82 -196 -61
-485 6 -87 5 -137 -5 -188 -12 -62 -11 -82 4 -167 17 -90 60 -207 90 -242 7
-8 19 -44 26 -80 6 -35 30 -109 52 -163 44 -111 64 -210 50 -248 -8 -19 -26
-29 -90 -48 -79 -23 -82 -23 -129 -6 -26 9 -118 41 -203 70 l-155 54 -3 64
c-2 50 3 82 23 138 14 41 33 101 41 134 9 33 31 92 49 130 49 102 59 153 49
243 -4 42 -6 111 -3 152 2 41 4 131 4 200 0 117 -2 129 -28 182 -93 190 -298
282 -554 250 -173 -22 -298 -109 -367 -252 l-31 -65 3 -150 c5 -208 5 -241 -3
-318 -9 -81 2 -132 54 -247 21 -47 45 -112 54 -145 9 -33 29 -98 46 -145 35
-98 40 -155 14 -168 -10 -5 -101 -38 -203 -72 -102 -34 -231 -80 -287 -102
-179 -69 -192 -91 -193 -316 0 -122 3 -160 16 -185 9 -18 19 -34 21 -37 3 -3
230 -7 506 -10 l502 -5 5 -91 c5 -99 22 -138 66 -154 37 -15 2326 -13 2357 1
52 24 57 49 57 281 -1 305 6 295 -270 404 -80 31 -237 87 -350 125 l-205 67
-3 69 c-4 81 10 160 42 240 13 32 30 87 36 123 7 36 21 74 30 85 32 36 60 103
81 192 21 88 21 120 3 280 -3 30 2 112 11 185 18 142 15 215 -15 309 -20 65
-97 186 -147 229 -45 40 -179 107 -250 125 -83 22 -328 19 -408 -4z m370 -116
c95 -25 146 -52 204 -108 67 -66 95 -110 117 -183 17 -60 17 -78 -6 -319 -10
-103 -9 -128 5 -186 16 -63 16 -73 0 -151 -21 -101 -37 -142 -75 -190 -20 -24
-30 -48 -30 -70 0 -18 -18 -84 -39 -145 -22 -62 -45 -148 -51 -190 -20 -128 2
-245 52 -276 12 -8 133 -52 268 -97 338 -114 450 -158 482 -191 l28 -27 0
-176 0 -176 -1120 0 -1120 0 0 164 c0 153 1 165 23 197 30 44 102 74 483 200
211 69 307 106 322 122 56 60 55 210 -2 357 -21 52 -48 139 -60 192 -16 65
-32 107 -49 127 -27 33 -61 124 -77 210 -8 42 -7 66 6 115 14 54 15 76 3 201
-22 227 -19 288 17 365 18 36 48 83 67 106 41 46 148 107 228 128 73 20 249
20 324 1z m-1343 -256 c105 -23 187 -84 233 -175 33 -66 36 -104 20 -312 -6
-82 -5 -123 4 -150 17 -51 -8 -169 -50 -236 -17 -28 -34 -73 -39 -102 -5 -28
-21 -80 -36 -115 -27 -60 -28 -73 -29 -202 l0 -139 31 -27 c21 -19 74 -42 163
-70 73 -23 131 -44 129 -47 -3 -2 -81 -33 -173 -69 -93 -36 -189 -77 -212 -91
-60 -35 -103 -111 -103 -181 l0 -53 -460 0 -461 0 3 132 3 133 40 19 c62 29
255 99 417 151 81 26 160 56 177 66 66 40 69 201 6 354 -20 50 -39 112 -42
138 -3 27 -17 65 -31 85 -50 74 -55 104 -59 322 -2 113 -4 232 -5 265 -3 102
67 221 155 267 83 42 219 58 319 37z"/>
</g>
</svg>
