<?xml version="1.0" standalone="no"?>
<!DOCTYPE svg PUBLIC "-//W3C//DTD SVG 20010904//EN"
 "http://www.w3.org/TR/2001/REC-SVG-20010904/DTD/svg10.dtd">
<svg version="1.0" xmlns="http://www.w3.org/2000/svg"
 width="61.000000pt" height="61.000000pt" viewBox="0 0 301.000000 301.000000"
 preserveAspectRatio="xMidYMid meet">
<metadata>
Created by potrace 1.15, written by Peter Selinger 2001-2017
</metadata>
<g transform="translate(0.000000,301.000000) scale(0.100000,-0.100000)"
fill="#ffffff" stroke="none">
<path d="M1440 2996 c-167 -36 -269 -204 -225 -371 9 -33 20 -64 26 -69 5 -6
9 -14 9 -18 0 -4 -107 -8 -238 -8 l-238 0 -12 33 c-15 41 -64 93 -111 116
-115 58 -252 17 -318 -96 -24 -41 -28 -59 -28 -118 1 -98 43 -170 130 -221 17
-9 1 -47 -195 -462 -118 -249 -220 -452 -227 -452 -18 0 -17 -96 2 -183 27
-127 122 -265 235 -341 111 -74 280 -103 413 -72 252 59 426 277 427 534 0 46
-4 62 -14 62 -8 0 -98 179 -226 452 l-213 452 24 15 c39 25 89 81 104 117 l14
34 270 0 271 0 0 -955 0 -955 -98 0 -97 0 -245 -245 -245 -245 870 0 870 0
-245 245 -245 245 -97 0 -98 0 0 955 0 955 271 0 270 0 14 -35 c15 -35 75
-102 109 -120 17 -10 3 -44 -194 -463 -140 -297 -218 -452 -228 -452 -12 0
-14 -14 -10 -87 18 -289 228 -503 513 -520 261 -16 506 170 561 426 18 85 19
181 1 181 -7 0 -109 203 -227 452 -198 418 -213 452 -196 462 42 24 88 71 109
110 33 63 31 166 -6 228 -49 84 -156 136 -247 122 -22 -4 -64 -21 -92 -38 -40
-24 -58 -43 -78 -83 l-25 -52 -237 0 c-131 -1 -238 1 -238 3 0 2 7 17 15 32
47 91 39 210 -20 301 -70 106 -191 156 -315 129z m136 -135 c121 -55 138 -222
32 -302 -28 -20 -44 -24 -103 -24 -83 0 -123 23 -155 90 -37 77 -19 161 46
213 57 46 114 53 180 23z m-976 -296 c104 -54 62 -215 -56 -215 -39 0 -51 5
-80 34 -28 28 -34 42 -34 76 0 52 13 76 53 100 38 24 78 25 117 5z m1920 0
c42 -21 60 -53 60 -103 0 -37 -6 -50 -34 -78 -29 -29 -41 -34 -80 -34 -59 0
-104 37 -113 92 -15 98 80 168 167 123z m-960 -1120 l0 -955 -55 0 -55 0 0
955 0 955 55 0 55 0 0 -955z m-825 287 c102 -216 185 -395 185 -398 0 -2 -169
-4 -375 -4 -206 0 -375 2 -375 4 0 2 75 163 166 357 92 195 175 373 186 397
11 24 21 42 23 40 2 -2 88 -180 190 -396z m1932 -26 c95 -203 173 -370 173
-372 0 -2 -169 -4 -376 -4 -325 0 -375 2 -371 15 4 8 88 188 189 400 180 382
182 386 197 358 8 -15 92 -194 188 -397z m-1717 -526 c0 -44 -43 -132 -91
-184 -101 -111 -196 -151 -339 -144 -107 5 -177 35 -256 110 -64 60 -96 110
-118 186 l-15 52 410 0 c400 0 409 0 409 -20z m1914 -32 c-22 -76 -54 -126
-118 -186 -79 -75 -149 -105 -256 -110 -142 -7 -235 31 -333 137 -35 39 -63
80 -76 116 -39 105 -79 95 388 95 l410 0 -15 -52z m-914 -903 l115 -115 -559
0 -559 0 23 25 c23 25 25 25 192 25 l169 0 -3 63 -3 62 -99 3 -99 3 23 24 23
25 331 0 331 0 115 -115z"/>
<path d="M1447 304 c-4 -4 -7 -34 -7 -66 l0 -58 65 0 66 0 -3 63 -3 62 -55 3
c-31 2 -59 0 -63 -4z"/>
</g>
</svg>
