<?xml version="1.0" standalone="no"?>
<!DOCTYPE svg PUBLIC "-//W3C//DTD SVG 20010904//EN"
 "http://www.w3.org/TR/2001/REC-SVG-20010904/DTD/svg10.dtd">
<svg version="1.0" xmlns="http://www.w3.org/2000/svg"
 width="61.000000pt" height="55.000000pt" viewBox="0 0 301.000000 295.000000"
 preserveAspectRatio="xMidYMid meet">
<metadata>
Created by potrace 1.15, written by Peter Selinger 2001-2017
</metadata>
<g transform="translate(0.000000,295.000000) scale(0.100000,-0.100000)"
fill="#ffffff" stroke="none">
<path d="M1447 2944 c-4 -4 -7 -45 -7 -90 l0 -83 -57 -3 -58 -3 -3 -135 -3
-135 -65 -34 c-96 -50 -182 -138 -232 -238 -22 -46 -44 -103 -48 -128 l-6 -45
-64 0 -64 0 0 -150 0 -149 -57 -3 -58 -3 -3 -297 -2 -298 -298 -2 -297 -3 -3
-387 -2 -387 -58 -3 -57 -3 -3 -182 -2 -183 1505 0 1505 0 -2 183 -3 182 -57
3 -58 3 -2 387 -3 387 -297 3 -298 2 -2 298 -3 297 -57 3 -58 3 0 149 0 150
-63 0 -64 0 -12 55 c-32 143 -141 285 -274 355 l-66 35 -3 135 -3 135 -57 3
-57 3 -3 87 -3 87 -55 3 c-31 2 -59 0 -63 -4z m144 -558 c37 -8 84 -23 106
-34 95 -49 191 -170 208 -264 l7 -38 -410 0 -410 0 10 38 c42 152 177 277 326
302 70 12 91 11 163 -4z m449 -551 l0 -85 -535 0 -535 0 0 85 0 85 535 0 535
0 0 -85z m-350 -333 l0 -117 -60 3 -60 4 0 113 0 114 53 3 c28 2 55 2 60 0 4
-2 7 -56 7 -120z m-730 3 l0 -115 -55 0 -55 0 0 115 0 115 55 0 55 0 0 -115z
m240 0 l0 -115 -55 0 -55 0 0 115 0 115 55 0 55 0 0 -115z m240 0 l0 -115 -55
0 -55 0 0 115 0 115 55 0 55 0 0 -115z m480 0 l0 -115 -55 0 -55 0 0 115 0
115 55 0 55 0 0 -115z m240 0 l0 -115 -55 0 -55 0 0 115 0 115 55 0 55 0 0
-115z m0 -300 l0 -55 -655 0 -655 0 0 55 0 55 655 0 655 0 0 -55z m-1620 -510
l0 -325 -145 0 -145 0 0 325 0 325 145 0 145 0 0 -325z m420 0 l0 -325 -145 0
-145 0 0 325 0 325 145 0 145 0 0 -325z m960 0 l0 -325 -415 0 -415 0 0 325 0
325 415 0 415 0 0 -325z m420 0 l0 -325 -145 0 -145 0 0 325 0 325 145 0 145
0 0 -325z m430 -2 l0 -328 -150 3 -150 3 0 325 0 324 150 0 150 0 0 -327z
m-2230 -508 l0 -55 -205 0 -205 0 0 55 0 55 205 0 205 0 0 -55z m420 0 l0 -55
-145 0 -145 0 0 55 0 55 145 0 145 0 0 -55z m960 0 l0 -55 -415 0 -415 0 0 55
0 55 415 0 415 0 0 -55z m420 0 l0 -55 -145 0 -145 0 0 55 0 55 145 0 145 0 0
-55z m540 0 l0 -55 -205 0 -205 0 0 55 0 55 205 0 205 0 0 -55z"/>
<path d="M367 604 c-4 -4 -7 -34 -7 -66 l0 -58 65 0 66 0 -3 63 -3 62 -55 3
c-31 2 -59 0 -63 -4z"/>
<path d="M727 604 c-4 -4 -7 -34 -7 -66 l0 -58 65 0 66 0 -3 63 -3 62 -55 3
c-31 2 -59 0 -63 -4z"/>
<path d="M1200 690 l0 -210 65 0 65 0 0 210 0 210 -65 0 -65 0 0 -210z"/>
<path d="M1440 690 l0 -210 65 0 65 0 0 210 0 210 -65 0 -65 0 0 -210z"/>
<path d="M1680 690 l0 -210 65 0 65 0 0 210 0 210 -65 0 -65 0 0 -210z"/>
<path d="M2167 604 c-4 -4 -7 -34 -7 -66 l0 -58 65 0 66 0 -3 63 -3 62 -55 3
c-31 2 -59 0 -63 -4z"/>
<path d="M2527 604 c-4 -4 -7 -34 -7 -66 l0 -58 65 0 66 0 -3 63 -3 62 -55 3
c-31 2 -59 0 -63 -4z"/>
</g>
</svg>
