<?xml version="1.0" standalone="no"?>
<!DOCTYPE svg PUBLIC "-//W3C//DTD SVG 20010904//EN"
 "http://www.w3.org/TR/2001/REC-SVG-20010904/DTD/svg10.dtd">
<svg version="1.0" xmlns="http://www.w3.org/2000/svg"
 width="61.000000pt" height="59.000000pt" viewBox="0 0 301.000000 295.000000"
 preserveAspectRatio="xMidYMid meet">
<metadata>
Created by potrace 1.15, written by Peter Selinger 2001-2017
</metadata>
<g transform="translate(0.000000,295.000000) scale(0.100000,-0.100000)"
fill="#ffffff" stroke="none">
<path d="M7 2943 c-4 -3 -7 -303 -7 -665 l0 -658 660 0 660 0 0 -810 0 -810
65 0 65 0 0 810 0 810 55 0 55 0 0 -810 0 -810 65 0 65 0 0 810 0 810 660 0
660 0 -2 663 -3 662 -1496 3 c-822 1 -1499 -1 -1502 -5z m2873 -658 l0 -535
-1375 0 -1375 0 0 535 0 535 1375 0 1375 0 0 -535z"/>
<path d="M367 2583 c-4 -3 -7 -77 -7 -163 l0 -157 116 -154 c63 -85 119 -158
124 -163 5 -5 60 62 129 155 l121 163 0 163 0 164 -62 -3 -63 -3 -3 -143 -3
-143 -56 -75 c-31 -41 -58 -73 -60 -71 -2 2 -28 37 -58 77 l-55 74 0 143 0
143 -58 0 c-32 0 -62 -3 -65 -7z"/>
<path d="M967 2583 c-4 -3 -7 -141 -7 -305 l0 -298 245 0 245 0 0 305 0 305
-238 0 c-131 0 -242 -3 -245 -7z m353 -298 l0 -175 -115 0 -115 0 0 175 0 175
115 0 115 0 0 -175z"/>
<path d="M1560 2525 l0 -65 90 0 90 0 0 -240 0 -240 65 0 65 0 0 240 0 240 90
0 91 0 -3 63 -3 62 -242 3 -243 2 0 -65z"/>
<path d="M2160 2285 l0 -305 245 0 246 0 -3 63 -3 62 -177 3 -178 2 0 55 0 55
180 0 181 0 -3 63 -3 62 -177 3 -178 2 0 55 0 55 180 0 181 0 -3 63 -3 62
-242 3 -243 2 0 -305z"/>
</g>
</svg>
