<?xml version="1.0" standalone="no"?>
<!DOCTYPE svg PUBLIC "-//W3C//DTD SVG 20010904//EN"
 "http://www.w3.org/TR/2001/REC-SVG-20010904/DTD/svg10.dtd">
<svg version="1.0" xmlns="http://www.w3.org/2000/svg"
 width="52.000000pt" height="56.000000pt" viewBox="0 0 354.000000 374.000000"
 preserveAspectRatio="xMidYMid meet">
<metadata>
Created by potrace 1.15, written by Peter Selinger 2001-2017
</metadata>
<g transform="translate(0.000000,374.000000) scale(0.100000,-0.100000)"
fill="#eb2f5b" stroke="none">
<path d="M949 3716 c-71 -27 -118 -56 -163 -102 -51 -51 -69 -80 -97 -162 -18
-51 -19 -90 -19 -501 l0 -446 -309 -316 c-329 -337 -335 -345 -350 -460 -9
-74 4 -162 35 -228 21 -48 88 -120 442 -475 395 -396 421 -420 490 -453 129
-61 251 -55 379 18 37 22 195 174 540 525 l488 494 405 2 405 3 -849 853
c-599 601 -853 849 -860 842 -8 -8 -14 11 -22 63 -17 106 -56 186 -120 247
-82 78 -148 104 -264 107 -61 2 -108 -2 -131 -11z m239 -143 c62 -31 96 -67
128 -138 21 -43 24 -66 24 -161 l0 -112 -270 -262 -270 -262 0 379 0 379 25
51 c31 61 66 98 120 126 86 44 156 44 243 0z m1275 -1413 c229 -228 417 -418
417 -422 0 -5 -125 -8 -277 -8 l-278 0 -515 -515 c-365 -365 -526 -519 -554
-530 -50 -21 -172 -21 -222 0 -27 11 -161 137 -434 408 -447 444 -465 465
-464 577 2 126 -16 105 622 736 l577 571 3 -418 2 -419 65 0 65 0 0 488 c0
269 3 492 7 496 7 7 136 -119 986 -964z"/>
<path d="M2977 1153 c-230 -325 -305 -513 -295 -735 3 -83 8 -101 42 -171 46
-92 106 -151 204 -199 63 -31 73 -33 177 -33 106 0 113 1 187 37 124 59 199
152 234 289 14 54 15 74 4 134 -36 206 -87 349 -176 492 -43 69 -225 335 -244
356 -4 5 -64 -72 -133 -170z m215 -191 c165 -278 231 -477 198 -602 -39 -150
-194 -250 -341 -219 -189 39 -288 215 -234 418 26 94 79 222 127 305 92 159
150 246 159 241 5 -4 46 -68 91 -143z"/>
</g>
</svg>
