<?xml version="1.0" standalone="no"?>
<!DOCTYPE svg PUBLIC "-//W3C//DTD SVG 20010904//EN"
 "http://www.w3.org/TR/2001/REC-SVG-20010904/DTD/svg10.dtd">
<svg version="1.0" xmlns="http://www.w3.org/2000/svg"
 width="59.000000pt" height="61.000000pt" viewBox="0 0 289.000000 301.000000"
 preserveAspectRatio="xMidYMid meet">
<metadata>
Created by potrace 1.15, written by Peter Selinger 2001-2017
</metadata>
<g transform="translate(0.000000,301.000000) scale(0.100000,-0.100000)"
fill="#ffffff" stroke="none">
<path d="M0 2945 l0 -65 95 0 96 0 -3 63 -3 62 -92 3 -93 3 0 -66z"/>
<path d="M307 3004 c-4 -4 -7 -34 -7 -66 l0 -58 95 0 96 0 -3 63 -3 62 -85 3
c-47 1 -89 0 -93 -4z"/>
<path d="M2407 3004 c-4 -4 -7 -34 -7 -66 l0 -58 65 0 66 0 -3 63 -3 62 -55 3
c-31 2 -59 0 -63 -4z"/>
<path d="M2647 3003 c-4 -3 -7 -33 -7 -65 l0 -58 125 0 125 0 0 65 0 65 -118
0 c-65 0 -122 -3 -125 -7z"/>
<path d="M0 2705 l0 -65 228 0 227 0 125 -125 124 -125 -22 -27 c-106 -133
-174 -254 -211 -376 -85 -278 -59 -538 79 -794 153 -284 447 -484 770 -522
l95 -12 330 -329 330 -330 408 0 407 0 0 65 0 65 -383 0 -382 0 -269 269
c-262 262 -269 270 -240 276 438 90 736 377 831 799 22 99 21 316 -1 420 -33
149 -107 305 -200 419 -23 29 -46 58 -50 66 -6 9 27 49 115 137 l124 124 227
0 228 0 0 65 0 65 -252 0 -253 0 -146 -146 -147 -147 -86 57 c-144 97 -324
159 -494 172 -215 16 -465 -55 -653 -187 l-60 -43 -147 147 -147 147 -253 0
-252 0 0 -65z m1380 -510 l0 -385 -410 0 c-336 0 -410 2 -410 13 0 36 42 173
75 241 20 42 63 112 97 157 l61 81 63 -63 64 -63 45 44 45 44 -61 62 -61 61
54 35 c117 77 247 129 373 147 33 5 61 9 63 10 1 0 2 -172 2 -384z m325 344
c79 -24 165 -65 243 -117 l54 -35 -61 -61 -61 -62 45 -44 45 -44 63 62 63 62
53 -67 c66 -83 123 -195 158 -310 24 -79 26 -104 26 -238 0 -121 -4 -165 -21
-230 -22 -81 -106 -260 -143 -304 l-20 -25 -320 320 -319 319 0 406 0 406 63
-9 c34 -4 93 -17 132 -29z m33 -1182 l324 -324 -49 -42 c-118 -104 -305 -182
-476 -198 l-69 -6 -202 202 -202 201 -44 -45 -44 -45 149 -150 150 -150 -75
21 c-234 65 -444 238 -556 461 -45 89 -82 220 -90 318 l-7 80 434 0 434 0 323
-323z"/>
<path d="M0 305 l0 -65 155 0 156 0 -3 63 -3 62 -152 3 -153 3 0 -66z"/>
<path d="M427 363 c-4 -3 -7 -33 -7 -65 l0 -58 275 0 276 0 -3 63 -3 62 -266
3 c-146 1 -268 -1 -272 -5z"/>
<path d="M2167 364 c-4 -4 -7 -34 -7 -66 l0 -58 65 0 66 0 -3 63 -3 62 -55 3
c-31 2 -59 0 -63 -4z"/>
<path d="M2407 363 c-4 -3 -7 -33 -7 -65 l0 -58 245 0 245 0 0 65 0 65 -238 0
c-131 0 -242 -3 -245 -7z"/>
<path d="M0 65 l0 -65 335 0 336 0 -3 63 -3 62 -332 3 -333 2 0 -65z"/>
<path d="M787 124 c-4 -4 -7 -34 -7 -66 l0 -58 95 0 96 0 -3 62 -3 63 -85 3
c-47 1 -89 0 -93 -4z"/>
</g>
</svg>
