<?xml version="1.0" standalone="no"?>
<!DOCTYPE svg PUBLIC "-//W3C//DTD SVG 20010904//EN"
 "http://www.w3.org/TR/2001/REC-SVG-20010904/DTD/svg10.dtd">
<svg version="1.0" xmlns="http://www.w3.org/2000/svg"
 width="50.000000pt" height="50.000000pt" viewBox="0 0 321.000000 322.000000"
 preserveAspectRatio="xMidYMid meet">
<metadata>
Created by potrace 1.15, written by Peter Selinger 2001-2017
</metadata>
<g transform="translate(0.000000,322.000000) scale(0.100000,-0.100000)"
fill="#eb2f5b" stroke="none">
<path d="M210 3193 c-61 -22 -171 -133 -188 -189 -9 -31 -12 -390 -12 -1486
l0 -1444 21 -23 c11 -12 32 -26 46 -32 33 -12 3023 -12 3056 0 14 6 35 20 46
32 l21 23 0 1199 c0 839 -3 1204 -11 1219 -22 41 -64 48 -304 48 l-225 0 0
213 c0 165 -3 224 -15 258 -20 60 -91 138 -151 169 l-49 25 -1095 2 c-978 1
-1100 0 -1140 -14z m2225 -132 c93 -42 105 -81 105 -326 l0 -195 -1205 0
-1205 0 0 193 c0 208 8 245 61 294 61 56 -7 53 1144 53 1007 0 1062 -1 1100
-19z m645 -1786 l0 -1135 -1475 0 -1475 0 0 1135 0 1135 1475 0 1475 0 0
-1135z"/>
<path d="M2412 1600 c-106 -22 -195 -92 -241 -189 -35 -75 -37 -192 -4 -263
31 -68 104 -142 166 -168 65 -29 161 -37 224 -20 102 28 197 118 231 219 18
52 15 154 -7 211 -55 144 -223 239 -369 210z m168 -154 c56 -37 95 -120 87
-187 -9 -72 -47 -132 -100 -158 -127 -62 -284 20 -295 153 -2 29 1 70 8 90 13
39 97 122 133 130 49 10 129 -3 167 -28z"/>
</g>
</svg>
