<?xml version="1.0" standalone="no"?>
<!DOCTYPE svg PUBLIC "-//W3C//DTD SVG 20010904//EN"
 "http://www.w3.org/TR/2001/REC-SVG-20010904/DTD/svg10.dtd">
<svg version="1.0" xmlns="http://www.w3.org/2000/svg"
 width="61.000000pt" height="61.000000pt" viewBox="0 0 301.000000 301.000000"
 preserveAspectRatio="xMidYMid meet">
<metadata>
Created by potrace 1.15, written by Peter Selinger 2001-2017
</metadata>
<g transform="translate(0.000000,301.000000) scale(0.100000,-0.100000)"
fill="#ffffff" stroke="none">
<path d="M1440 2338 l0 -673 -253 253 c-138 138 -257 252 -263 252 -12 0 -84
-72 -84 -85 0 -6 114 -124 252 -262 l253 -253 -673 0 -672 0 0 -65 0 -65 672
-2 673 -3 -254 -258 -255 -258 44 -44 45 -45 257 257 258 258 0 -673 0 -672
65 0 65 0 0 672 0 673 258 -258 257 -257 43 43 c23 23 42 47 42 52 0 6 -114
124 -252 262 l-253 253 673 0 672 0 0 65 0 65 -672 0 -673 0 253 253 c138 138
252 257 252 263 0 12 -72 84 -85 84 -6 0 -124 -114 -262 -252 l-253 -253 0
673 0 672 -65 0 -65 0 0 -672z"/>
<path d="M1977 2878 c-8 -24 -18 -50 -21 -59 -6 -13 6 -21 49 -39 33 -13 60
-19 65 -14 5 5 17 32 28 59 l20 51 -57 22 c-31 12 -60 22 -63 22 -3 0 -13 -19
-21 -42z"/>
<path d="M900 2879 c-24 -11 -46 -21 -48 -23 -1 -2 8 -29 22 -61 28 -63 30
-63 108 -24 l37 19 -23 52 c-13 29 -30 54 -37 55 -8 1 -34 -7 -59 -18z"/>
<path d="M1837 2521 c-37 -93 -67 -173 -67 -178 0 -5 23 -18 52 -29 29 -10 55
-20 59 -22 7 -3 139 325 139 345 0 8 -98 53 -114 53 -2 0 -33 -76 -69 -169z"/>
<path d="M1011 2654 c-30 -14 -56 -26 -58 -28 -4 -4 135 -328 146 -339 4 -4
33 4 63 18 l56 26 -74 172 c-42 94 -76 172 -77 173 -1 1 -27 -9 -56 -22z"/>
<path d="M495 2611 c-106 -48 -146 -179 -84 -273 82 -126 267 -112 330 27 57
124 -40 266 -181 265 -14 0 -43 -9 -65 -19z"/>
<path d="M2388 2620 c-163 -49 -176 -283 -20 -352 90 -40 199 -2 243 84 28 56
23 141 -12 192 -43 65 -137 98 -211 76z"/>
<path d="M2803 2136 c-29 -12 -55 -24 -58 -28 -6 -5 40 -118 48 -118 3 0 30
12 60 26 l56 25 -25 57 c-13 31 -26 57 -27 58 -1 1 -25 -8 -54 -20z"/>
<path d="M114 2073 c-29 -69 -25 -82 31 -104 28 -10 53 -19 56 -19 7 0 51 111
47 116 -6 6 -100 44 -109 44 -5 0 -16 -17 -25 -37z"/>
<path d="M2456 1985 c-92 -41 -170 -75 -172 -77 -3 -3 42 -108 50 -115 3 -3
328 137 338 146 6 5 -30 102 -42 115 -3 2 -81 -29 -174 -69z"/>
<path d="M340 1964 c-13 -31 -19 -59 -14 -63 5 -5 84 -38 176 -73 l166 -65 21
50 c12 27 21 55 21 63 0 10 -317 144 -341 144 -4 0 -17 -25 -29 -56z"/>
<path d="M2331 1218 c-5 -13 -16 -40 -24 -61 -15 -35 -15 -38 1 -44 13 -5 183
-72 328 -130 10 -4 62 114 53 121 -6 4 -338 136 -344 136 -3 0 -9 -10 -14 -22z"/>
<path d="M500 1140 c-85 -38 -159 -71 -163 -72 -9 -4 39 -118 49 -118 11 0
334 142 338 149 6 12 -44 111 -56 110 -7 0 -83 -32 -168 -69z"/>
<path d="M2784 1007 c-10 -28 -21 -55 -22 -59 -4 -8 107 -62 114 -56 7 8 44
101 44 112 0 7 -26 21 -58 33 l-59 21 -19 -51z"/>
<path d="M148 987 l-46 -22 22 -52 c12 -29 25 -55 29 -59 5 -6 78 21 115 42 2
1 -7 27 -20 58 -26 63 -31 64 -100 33z"/>
<path d="M482 729 c-154 -78 -123 -309 46 -347 109 -25 213 48 228 161 9 60
-29 141 -82 176 -51 35 -134 40 -192 10z"/>
<path d="M2365 734 c-62 -32 -101 -84 -105 -139 -6 -93 24 -157 93 -196 48
-26 128 -29 172 -6 39 20 81 65 94 100 25 66 4 165 -45 208 -56 49 -150 64
-209 33z"/>
<path d="M1838 697 l-47 -22 73 -168 c40 -92 75 -170 78 -173 8 -8 120 44 116
55 -1 5 -34 81 -73 170 -47 107 -75 160 -85 160 -8 0 -36 -10 -62 -22z"/>
<path d="M1056 545 c-36 -90 -66 -169 -66 -175 0 -11 82 -50 105 -50 11 0 145
314 145 340 0 8 -91 50 -108 50 -5 0 -39 -74 -76 -165z"/>
<path d="M2047 242 l-57 -27 26 -55 c14 -30 26 -56 28 -57 4 -4 116 45 116 51
0 6 -50 116 -52 116 -2 -1 -29 -13 -61 -28z"/>
<path d="M931 227 c-5 -12 -16 -39 -24 -60 -16 -37 -16 -38 6 -46 12 -5 40
-16 61 -25 22 -9 40 -15 41 -14 6 7 45 121 43 123 -2 1 -29 11 -61 23 l-58 22
-8 -23z"/>
</g>
</svg>
