<?xml version="1.0" standalone="no"?>
<!DOCTYPE svg PUBLIC "-//W3C//DTD SVG 20010904//EN"
 "http://www.w3.org/TR/2001/REC-SVG-20010904/DTD/svg10.dtd">
<svg version="1.0" xmlns="http://www.w3.org/2000/svg"
 width="36.000000px" height="36.000000px" viewBox="0 0 148.000000 147.000000"
 preserveAspectRatio="xMidYMid meet">
<metadata>
Created by potrace 1.15, written by Peter Selinger 2001-2017
</metadata>
<g transform="translate(0.000000,147.000000) scale(0.100000,-0.100000)"
fill="#ffff99" stroke="none">
<path d="M564 1451 c-261 -64 -478 -279 -545 -539 -26 -102 -26 -253 1 -356
32 -128 91 -228 195 -332 78 -79 104 -98 195 -143 136 -67 219 -85 365 -78 71
4 135 13 180 27 112 35 245 111 245 140 0 10 -28 40 -38 40 -4 0 -25 -12 -46
-26 -109 -74 -229 -109 -381 -109 -192 0 -332 59 -471 200 -63 63 -91 100
-123 166 -194 394 35 858 469 945 356 71 708 -153 786 -502 53 -238 -54 -434
-236 -434 -46 0 -80 18 -106 57 -20 30 -22 48 -26 215 -3 166 -6 188 -27 230
-63 131 -205 176 -402 127 -89 -22 -124 -44 -113 -72 9 -25 36 -29 85 -12 72
26 180 37 234 25 90 -20 131 -68 144 -167 7 -45 5 -53 -7 -48 -40 15 -167 27
-248 23 -112 -6 -187 -36 -230 -94 -27 -34 -29 -45 -29 -119 0 -73 3 -87 30
-130 43 -69 113 -105 205 -105 97 0 204 39 275 101 25 23 35 27 35 15 0 -23
60 -87 97 -102 18 -8 61 -14 96 -14 114 0 219 76 275 198 37 83 43 237 13 347
-71 257 -278 459 -538 526 -98 24 -259 25 -359 0z m334 -713 c47 -9 61 -15 57
-26 -3 -7 -5 -38 -5 -67 0 -46 -5 -59 -31 -89 -17 -20 -61 -50 -97 -68 -58
-29 -77 -33 -142 -33 -117 1 -162 36 -176 138 -20 142 122 195 394 145z"/>
</g>
</svg>
