<?xml version="1.0" standalone="no"?>
<!DOCTYPE svg PUBLIC "-//W3C//DTD SVG 20010904//EN"
 "http://www.w3.org/TR/2001/REC-SVG-20010904/DTD/svg10.dtd">
<svg version="1.0" xmlns="http://www.w3.org/2000/svg"
 width="24.000000px" height="24.000000px" viewBox="0 0 99.000000 148.000000"
 preserveAspectRatio="xMidYMid meet">
<metadata>
Created by potrace 1.15, written by Peter Selinger 2001-2017
</metadata>
<g transform="translate(0.000000,148.000000) scale(0.100000,-0.100000)"
fill="#ffff99" stroke="none">
<path d="M345 1461 c-170 -61 -290 -188 -335 -353 -18 -67 -9 -207 19 -288 52
-151 198 -429 363 -693 62 -99 84 -127 101 -127 17 0 38 26 94 113 102 159
165 271 248 437 124 246 155 336 155 445 0 210 -144 402 -348 465 -84 26 -226
27 -297 1z m305 -80 c154 -59 270 -223 270 -383 0 -135 -113 -387 -343 -763
-43 -72 -80 -131 -82 -133 -7 -8 -228 374 -296 513 -109 222 -132 297 -127
402 9 180 136 333 313 380 69 18 197 10 265 -16z"/>
<path d="M415 1232 c-182 -85 -134 -356 65 -370 200 -15 287 244 120 354 -52
35 -131 41 -185 16z m151 -77 c33 -21 57 -81 49 -122 -14 -77 -102 -122 -171
-89 -69 33 -92 117 -49 182 33 51 115 65 171 29z"/>
</g>
</svg>
