<?xml version="1.0" standalone="no"?>
<!DOCTYPE svg PUBLIC "-//W3C//DTD SVG 20010904//EN"
 "http://www.w3.org/TR/2001/REC-SVG-20010904/DTD/svg10.dtd">
<svg version="1.0" xmlns="http://www.w3.org/2000/svg"
 width="32.000000px" height="32.000000px" viewBox="0 0 139.000000 151.000000"
 preserveAspectRatio="xMidYMid meet">
<metadata>
Created by potrace 1.15, written by Peter Selinger 2001-2017
</metadata>
<g transform="translate(0.000000,151.000000) scale(0.100000,-0.100000)"
fill="#ffff99" stroke="none">
<path d="M79 1487 c-18 -12 -44 -38 -56 -56 l-23 -34 0 -642 0 -642 23 -34
c12 -18 38 -44 57 -57 l34 -23 336 3 c333 3 335 3 368 26 70 51 67 16 67 728
l0 640 -27 41 c-47 72 -54 73 -421 73 -321 0 -324 0 -358 -23z m684 -59 c33
-17 46 -39 47 -75 l0 -33 -370 0 -370 0 0 31 c0 20 10 40 29 60 l29 29 307 0
c214 0 313 -4 328 -12z m47 -613 l0 -435 -370 0 -370 0 0 435 0 435 370 0 370
0 0 -435z m0 -600 c0 -88 -2 -98 -25 -120 l-24 -25 -316 0 -317 0 -29 29 c-28
28 -29 33 -29 120 l0 91 370 0 370 0 0 -95z"/>
<path d="M401 266 c-28 -16 -50 -52 -51 -84 0 -36 52 -82 93 -82 81 0 116 92
58 151 -32 31 -62 36 -100 15z"/>
<path d="M1177 1193 c-16 -15 -5 -47 28 -86 65 -75 115 -214 115 -317 0 -104
-50 -242 -115 -318 -39 -45 -44 -84 -12 -90 43 -8 134 119 172 240 30 95 33
217 9 312 -37 142 -157 300 -197 259z"/>
<path d="M1022 1068 c-19 -19 -14 -43 14 -69 14 -13 38 -44 52 -69 24 -40 27
-55 27 -140 0 -105 -9 -132 -71 -200 -37 -41 -41 -66 -12 -84 25 -15 90 51
131 134 28 57 32 74 32 150 0 76 -4 93 -32 150 -34 70 -92 140 -115 140 -8 0
-19 -5 -26 -12z"/>
</g>
</svg>
