<?xml version="1.0" standalone="no"?>
<!DOCTYPE svg PUBLIC "-//W3C//DTD SVG 20010904//EN"
 "http://www.w3.org/TR/2001/REC-SVG-20010904/DTD/svg10.dtd">
<svg version="1.0" xmlns="http://www.w3.org/2000/svg"
 width="170.000000pt" height="170.000000pt" viewBox="0 0 170.000000 170.000000"
 preserveAspectRatio="xMidYMid meet">
<metadata>
Created by potrace 1.15, written by Peter Selinger 2001-2017
</metadata>
<g transform="translate(0.000000,170.000000) scale(0.100000,-0.100000)"
fill="#000000" stroke="none">
<path d="M875 1663 c-4 -21 -9 -50 -11 -65 -5 -23 -2 -28 23 -33 15 -4 59 -16
98 -27 275 -79 501 -314 571 -592 l17 -68 36 6 c96 17 93 15 86 49 -14 68 -48
166 -86 243 -112 228 -358 430 -599 493 -138 36 -128 36 -135 -6z"/>
<path d="M151 1448 c-109 -103 -138 -145 -146 -212 -17 -131 63 -355 198 -556
245 -365 649 -654 948 -677 117 -9 162 10 270 114 48 46 95 100 104 120 31 64
19 85 -133 236 -136 135 -139 137 -183 137 -53 0 -66 -9 -154 -100 -38 -38
-75 -70 -83 -70 -8 0 -44 16 -81 35 -138 73 -342 277 -417 419 l-39 75 87 88
c96 98 113 136 85 189 -9 16 -73 86 -145 157 -129 127 -129 127 -176 127 -46
0 -51 -3 -135 -82z"/>
<path d="M853 1297 c-9 -65 -4 -77 32 -77 39 0 146 -60 201 -112 62 -58 100
-117 126 -193 l17 -50 53 3 c29 2 57 7 63 13 6 6 5 26 -3 57 -53 201 -241 376
-449 415 l-31 6 -9 -62z"/>
</g>
</svg>
