<?xml version="1.0" encoding="utf-8"?>
<!-- Svg Vector Icons : http://www.onlinewebfonts.com/icon -->
<!DOCTYPE svg PUBLIC "-//W3C//DTD SVG 1.1//EN" "http://www.w3.org/Graphics/SVG/1.1/DTD/svg11.dtd">
<svg version="1.1" xmlns="http://www.w3.org/2000/svg" xmlns:xlink="http://www.w3.org/1999/xlink" x="0px" y="0px" viewBox="0 0 1000 1000" enable-background="new 0 0 1000 1000" xml:space="preserve">
<metadata> Svg Vector Icons : http://www.onlinewebfonts.com/icon </metadata>
<g><path d="M980.4,935.2L711.8,665.9c58.8-69.6,94.3-159.7,94.3-258.1C806.2,187.3,628,8.5,408.1,8.5C188.2,8.5,10,187.3,10,407.8c0,220.5,178.2,399.3,398.1,399.3c98.1,0,187.9-35.6,257.3-94.6l268.5,269.3c12.8,12.9,33.6,12.9,46.5,0C993.2,968.9,993.2,948.1,980.4,935.2z M408.1,745.5c-185.9,0-336.6-151.2-336.6-337.6c0-186.5,150.7-337.6,336.6-337.6c185.9,0,336.6,151.2,336.6,337.6C744.7,594.3,594,745.5,408.1,745.5z"/></g>
</svg>