<?xml version="1.0" standalone="no"?>
<!DOCTYPE svg PUBLIC "-//W3C//DTD SVG 20010904//EN"
 "http://www.w3.org/TR/2001/REC-SVG-20010904/DTD/svg10.dtd">
<svg version="1.0" xmlns="http://www.w3.org/2000/svg"
 width="20.000000px" height="16.000000px" viewBox="0 0 245.000000 200.000000"
 preserveAspectRatio="xMidYMid meet">
<metadata>
Created by potrace 1.15, written by Peter Selinger 2001-2017
</metadata>
<g transform="translate(0.000000,200.000000) scale(0.100000,-0.100000)"
fill="#ffffff" stroke="none">
<path d="M1590 1989 c-114 -22 -265 -130 -325 -234 -53 -89 -78 -211 -65 -318
l6 -58 -60 7 c-189 19 -369 73 -534 160 -134 70 -235 145 -351 261 -52 51 -98
90 -102 86 -23 -24 -52 -126 -56 -203 -10 -160 35 -279 147 -392 l66 -66 -35
5 c-20 3 -69 16 -109 29 -40 13 -74 24 -75 24 -10 0 15 -134 33 -183 27 -72
97 -167 152 -208 51 -37 142 -83 182 -93 48 -12 20 -20 -89 -26 l-104 -5 32
-63 c68 -135 213 -240 367 -266 l74 -12 -79 -52 c-89 -59 -192 -104 -303 -134
-59 -15 -111 -20 -219 -22 l-141 -1 46 -29 c114 -71 272 -131 442 -167 152
-32 420 -32 570 0 198 42 362 109 515 209 144 95 327 297 434 478 117 200 191
463 191 683 l0 94 93 87 c50 48 107 108 126 134 l33 47 -38 -16 c-49 -20 -186
-55 -216 -55 -22 1 -22 1 7 22 55 40 110 103 143 165 17 33 32 65 32 70 0 6
-26 -3 -57 -19 -31 -16 -101 -43 -155 -60 l-99 -31 -32 31 c-109 105 -285 153
-447 121z"/>
</g>
</svg>
