<?xml version="1.0" standalone="no"?>
<!DOCTYPE svg PUBLIC "-//W3C//DTD SVG 20010904//EN"
 "http://www.w3.org/TR/2001/REC-SVG-20010904/DTD/svg10.dtd">
<svg version="1.0" xmlns="http://www.w3.org/2000/svg"
 width="175.000000pt" height="270.000000pt" viewBox="0 0 175.000000 270.000000"
 preserveAspectRatio="xMidYMid meet">
<metadata>
Created by potrace 1.15, written by Peter Selinger 2001-2017
</metadata>
<g transform="translate(0.000000,270.000000) scale(0.100000,-0.100000)"
fill="#000000" stroke="none">
<path d="M1315 2686 c-16 -8 -317 -301 -668 -653 l-637 -638 0 -45 0 -45 653
-652 c599 -599 655 -653 685 -653 18 0 45 6 60 14 26 14 238 224 300 299 35
42 42 89 18 122 -8 11 -215 220 -460 465 l-446 445 449 450 c247 247 454 460
460 472 6 12 11 36 11 54 0 29 -19 52 -167 200 -179 178 -200 191 -258 165z"/>
</g>
</svg>
