<?xml version="1.0" standalone="no"?>
<!DOCTYPE svg PUBLIC "-//W3C//DTD SVG 20010904//EN"
 "http://www.w3.org/TR/2001/REC-SVG-20010904/DTD/svg10.dtd">
<svg version="1.0" xmlns="http://www.w3.org/2000/svg"
 width="13.000000pt" height="29.000000pt" viewBox="0 0 76.000000 127.000000"
 preserveAspectRatio="xMidYMid meet">
<metadata>
Created by potrace 1.15, written by Peter Selinger 2001-2017
</metadata>
<g transform="translate(0.000000,127.000000) scale(0.100000,-0.100000)"
fill="#ffffff" stroke="none">
<path d="M42 1245 c-33 -28 -44 -65 -31 -104 5 -15 122 -134 259 -265 138
-131 250 -242 250 -246 0 -4 -113 -115 -250 -246 -138 -132 -253 -248 -257
-259 -22 -70 15 -125 85 -125 42 0 48 4 150 103 59 56 194 184 299 285 105
101 197 197 203 213 10 23 10 35 0 59 -12 28 -571 573 -614 597 -33 19 -62 15
-94 -12z"/>
</g>
</svg>
