<svg version="1.0" xmlns="http://www.w3.org/2000/svg"
 width="245.000000pt" height="245.000000pt" viewBox="0 0 245.000000 245.000000"
 preserveAspectRatio="xMidYMid meet">
<g transform="translate(0.000000,245.000000) scale(0.100000,-0.100000)"
fill="currentColor" stroke="none">
<path d="M2233 2413 c-17 -16 -259 -358 -538 -760 -279 -403 -510 -733 -514
-732 -3 0 -94 101 -201 225 -204 234 -235 261 -296 251 -87 -14 -141 -112
-101 -184 7 -12 131 -157 276 -322 222 -253 270 -303 301 -312 45 -14 96 0
128 34 23 25 1122 1610 1142 1646 7 15 10 42 7 70 -4 36 -13 52 -41 78 -30 28
-43 33 -84 33 -38 0 -54 -6 -79 -27z"/>
<path d="M175 2255 c-5 -2 -22 -6 -37 -9 -37 -8 -98 -63 -114 -103 -12 -26
-14 -212 -14 -1013 0 -943 1 -982 19 -1018 23 -46 46 -67 94 -87 32 -13 156
-15 1009 -15 922 0 975 1 1013 19 55 25 91 70 104 131 7 34 11 258 11 658 0
508 -2 604 -13 592 -8 -8 -51 -74 -95 -146 l-82 -131 0 -472 0 -471 -937 2
-938 3 -3 938 -2 937 694 0 693 0 54 87 c30 48 56 91 57 95 3 7 -1491 10
-1513 3z"/>
</g>
</svg>
