<?xml version="1.0" standalone="no"?>
<!DOCTYPE svg PUBLIC "-//W3C//DTD SVG 20010904//EN"
 "http://www.w3.org/TR/2001/REC-SVG-20010904/DTD/svg10.dtd">
<svg version="1.0" xmlns="http://www.w3.org/2000/svg"
 width="16.000000px" height="16.000000px" viewBox="0 0 285.000000 300.000000"
 preserveAspectRatio="xMidYMid meet">
<metadata>
Created by potrace 1.15, written by Peter Selinger 2001-2017
</metadata>
<g transform="translate(0.000000,300.000000) scale(0.100000,-0.100000)"
fill="#ffffff" stroke="none">
<path d="M923 2986 c-429 -82 -771 -400 -888 -827 -33 -117 -44 -322 -25 -450
33 -231 148 -456 320 -630 141 -143 307 -238 516 -296 91 -25 114 -28 279 -28
158 0 191 3 270 24 124 32 247 87 350 156 48 31 90 53 94 49 70 -80 792 -868
840 -916 74 -77 109 -87 149 -45 36 38 29 80 -21 135 -24 26 -216 236 -427
467 -211 231 -395 432 -408 447 l-25 28 39 47 c137 166 226 363 255 562 16
115 6 344 -19 436 -117 422 -405 710 -827 827 -93 26 -367 34 -472 14z m376
-157 c139 -22 307 -99 437 -203 388 -306 474 -872 198 -1288 -234 -351 -665
-511 -1072 -398 -378 105 -663 447 -701 840 -9 98 0 247 19 323 61 232 210
446 400 572 223 148 450 196 719 154z"/>
</g>
</svg>
