<?xml version="1.0" standalone="no"?>
<!DOCTYPE svg PUBLIC "-//W3C//DTD SVG 20010904//EN"
 "http://www.w3.org/TR/2001/REC-SVG-20010904/DTD/svg10.dtd">
<svg version="1.0" xmlns="http://www.w3.org/2000/svg"
 width="92.000000pt" height="18.000000pt" viewBox="0 0 92.000000 18.000000"
 preserveAspectRatio="xMidYMid meet">
<metadata>
Created by potrace 1.15, written by Peter Selinger 2001-2017
</metadata>
<g transform="translate(0.000000,18.000000) scale(0.100000,-0.100000)"
fill="#ffff99" stroke="none">
<path d="M57 173 c-29 -3 -40 -10 -47 -29 -13 -32 -13 -30 6 -48 8 -9 31 -16
50 -16 21 0 33 -4 29 -10 -5 -8 58 -16 88 -11 46 8 647 -39 704 -55 18 -5 23
-1 28 19 4 14 3 32 -1 39 -5 7 -7 21 -6 30 5 26 -23 35 -153 52 -220 29 -561
43 -698 29z"/>
</g>
</svg>
